<svg xmlns="http://www.w3.org/2000/svg" viewBox="0 0 585.94 82.41"><defs><style>.cls-1{fill:#64c800}.cls-2{fill:#fff}</style></defs><path class="cls-1" d="M37.43.19c6.72 5.46 34.51 29.1 34.51 46.56a36 36 0 0 1-71.94 0C0 29.28 27.79 5.65 34.51.19v6.9c0 3.12-24.82 24.9-24.8 38.07a26.26 26.26 0 1 0 52.52 0c-.1-13.7-24.8-35.93-24.8-38.25z" fill="#64c800"/><path class="cls-2" d="M36 39.53a11.19 11.19 0 1 0 11.15 11.19A11.18 11.18 0 0 0 36 39.53z" fill="#fff"/><path class="cls-1" fill="#64c800" d="M353.61 36.59h-49.38v6.82h20.67V81.8h8.04V43.41h20.67v-6.82zm25.54 10.28a22.94 22.94 0 0 0-13.41.49 12.79 12.79 0 0 0-3.74 2.08v-2.61h-8v35h8V62.06a8.26 8.26 0 0 1 .84-3.78 8.62 8.62 0 0 1 2.28-2.84 10 10 0 0 1 3.38-1.78 14.3 14.3 0 0 1 4.24-.61 11.46 11.46 0 0 1 2.32.22 13 13 0 0 1 2.06.61l1.32.51 1.93-7.19zM415 48.7a21.45 21.45 0 0 0-6.29-1.95 38.49 38.49 0 0 0-12.18-.09A24.1 24.1 0 0 0 391 48.2a17.28 17.28 0 0 0-4.77 3A11.33 11.33 0 0 0 383 56l-.48 1.35 7.37 1.65.43-1a6.12 6.12 0 0 1 1.85-2.35 10.48 10.48 0 0 1 2.88-1.58 17.64 17.64 0 0 1 3.49-.85 27.67 27.67 0 0 1 7.86 0 13.07 13.07 0 0 1 3.76 1 6.64 6.64 0 0 1 2.53 2 4.83 4.83 0 0 1 .89 3.08v.24h-14.92a44.12 44.12 0 0 0-6 .41 18.63 18.63 0 0 0-5.48 1.58 10.83 10.83 0 0 0-4.05 3.47 9.2 9.2 0 0 0-1.64 5.57 9.89 9.89 0 0 0 2 6.51 12.11 12.11 0 0 0 4.93 3.54 22.7 22.7 0 0 0 6.19 1.46c2.14.2 4.22.31 6.19.31a27.52 27.52 0 0 0 7.92-1.18 17.4 17.4 0 0 0 4.81-2.29v2.88h8V59.19a10.74 10.74 0 0 0-1.93-6.51 13 13 0 0 0-4.6-3.98zm-14 26.88c-1.1 0-2.37-.05-3.79-.15a16.88 16.88 0 0 1-3.87-.71 7 7 0 0 1-2.83-1.6 3.31 3.31 0 0 1-1-2.54 3.35 3.35 0 0 1 2.23-3.45 19.28 19.28 0 0 1 7.43-1.13h14.41v3.29a3.46 3.46 0 0 1-1.05 2.54 10.6 10.6 0 0 1-3.11 2.12 17.16 17.16 0 0 1-4.21 1.27 25.08 25.08 0 0 1-4.21.36zm59.85-6.05a6.07 6.07 0 0 1-1.79 2.78 10.6 10.6 0 0 1-3.12 1.91 17.3 17.3 0 0 1-3.88 1 23.34 23.34 0 0 1-9.59-.37 13 13 0 0 1-4.35-2 9.18 9.18 0 0 1-2.8-3.38 11.19 11.19 0 0 1-1-5 11.54 11.54 0 0 1 1-5A9.91 9.91 0 0 1 438 56a12.49 12.49 0 0 1 4.25-2.18 21.42 21.42 0 0 1 9.51-.45 17.65 17.65 0 0 1 3.88 1 10.86 10.86 0 0 1 3.15 1.93 6.17 6.17 0 0 1 1.83 2.82l.36 1.12 7.5-1.75-.48-1.31a13.58 13.58 0 0 0-3.39-5.37 17.37 17.37 0 0 0-5-3.35 24.37 24.37 0 0 0-5.86-1.74 31.53 31.53 0 0 0-14.1.65 21.13 21.13 0 0 0-6.87 3.44 16.64 16.64 0 0 0-6.57 13.63 17.44 17.44 0 0 0 1.76 8 16.1 16.1 0 0 0 4.8 5.65 20.29 20.29 0 0 0 7 3.25 32.83 32.83 0 0 0 8.26 1 40.7 40.7 0 0 0 6.14-.47 22.49 22.49 0 0 0 5.83-1.65 17.21 17.21 0 0 0 5-3.35 13.76 13.76 0 0 0 3.35-5.37l.48-1.35-7.58-1.74zm52.14-22.7h-12.85l-19.46 12.69V34.76h-8.04V81.8h8.04V67.85l2.31-1.55 20.79 15.5h12.48l-26.67-19.85 23.4-15.12z"/><path class="cls-1" d="M547.88 69.58a9.62 9.62 0 0 1-2.35 3 11.16 11.16 0 0 1-3.16 1.83 15.63 15.63 0 0 1-3.79.9 27 27 0 0 1-9.33-.37 13.53 13.53 0 0 1-4.25-1.77 9.83 9.83 0 0 1-2.95-3 8.38 8.38 0 0 1-1.12-2.94h34.31v-3.49a16.3 16.3 0 0 0-1.87-7.63 17 17 0 0 0-4.78-5.5 21.07 21.07 0 0 0-6.77-3.31 29.4 29.4 0 0 0-16 .06 20.73 20.73 0 0 0-6.82 3.45 16.88 16.88 0 0 0-4.71 5.73 17.18 17.18 0 0 0-1.76 7.89 17.45 17.45 0 0 0 1.76 8 15.88 15.88 0 0 0 4.77 5.62 20.7 20.7 0 0 0 6.94 3.31 31.58 31.58 0 0 0 8.24 1.05 50.36 50.36 0 0 0 6.29-.38 21.3 21.3 0 0 0 5.74-1.52 17.79 17.79 0 0 0 4.87-3.12 17.44 17.44 0 0 0 3.81-5.12l.68-1.34-7.24-2.31zm-26.54-9.16a8.68 8.68 0 0 1 1.19-2.32 11.08 11.08 0 0 1 3-2.79 13.46 13.46 0 0 1 3.92-1.69 18.61 18.61 0 0 1 9.11 0 13.42 13.42 0 0 1 3.93 1.69 11.06 11.06 0 0 1 3 2.79 8.6 8.6 0 0 1 1.19 2.32zm63.34-13.55a22.93 22.93 0 0 0-13.41.49 12.78 12.78 0 0 0-3.71 2.08v-2.61h-8v35h8V62.06a8.32 8.32 0 0 1 .83-3.78 8.68 8.68 0 0 1 2.28-2.84 10 10 0 0 1 3.38-1.78 14.34 14.34 0 0 1 4.25-.66 11.44 11.44 0 0 1 2.32.22 13.06 13.06 0 0 1 2.06.61l1.33.51 1.93-7.19z" fill="#64c800"/><path class="cls-2" fill="#fff" d="M86.73 36.59h8.04V81.8h-8.04zm52.15 13.14a16.29 16.29 0 0 0-5.74-2.73 28.15 28.15 0 0 0-7-.83 23.61 23.61 0 0 0-8.46 1.52 16.55 16.55 0 0 0-4.73 2.78v-3.64h-8v35h8V62.36a6.91 6.91 0 0 1 1.09-3.9 10.17 10.17 0 0 1 3-2.95 14.15 14.15 0 0 1 4.18-1.84 18 18 0 0 1 4.65-.63 12.47 12.47 0 0 1 7.6 2.09c1.76 1.32 2.62 3.29 2.62 6V81.8h8V61.14a15.5 15.5 0 0 0-1.35-6.67 12.64 12.64 0 0 0-3.86-4.74zm45.25 13.8a21.64 21.64 0 0 0-5.18-1.69c-1.85-.37-3.76-.67-5.69-.9s-3.77-.43-5.61-.61a34.38 34.38 0 0 1-4.7-.76 9.13 9.13 0 0 1-3-1.24 1.6 1.6 0 0 1-.77-1.45 2.4 2.4 0 0 1 .69-1.81 6.11 6.11 0 0 1 2.3-1.37 15.15 15.15 0 0 1 3.54-.75 38.74 38.74 0 0 1 7.92 0 13.12 13.12 0 0 1 3 .69 8 8 0 0 1 4.26 3.55l.5.82 7.52-2-.59-1.36a12.08 12.08 0 0 0-3.18-4.39 15.05 15.05 0 0 0-4.51-2.66 23 23 0 0 0-5.26-1.29 45.25 45.25 0 0 0-11.86.09 21.92 21.92 0 0 0-6 1.65 12.67 12.67 0 0 0-4.59 3.39 8.54 8.54 0 0 0-1.92 5.62 7.39 7.39 0 0 0 1.59 4.87 10.44 10.44 0 0 0 3.93 2.85 22.94 22.94 0 0 0 5.16 1.52c1.82.33 3.73.6 5.68.8s3.76.42 5.56.64a32.09 32.09 0 0 1 4.69.91 7.87 7.87 0 0 1 3 1.45 2.37 2.37 0 0 1 .84 1.95 2.09 2.09 0 0 1-.78 1.77 7.44 7.44 0 0 1-2.71 1.29 20 20 0 0 1-3.92.63 43.32 43.32 0 0 1-8.18-.08 13.81 13.81 0 0 1-3.37-.83 11 11 0 0 1-2.84-1.64 10.5 10.5 0 0 1-2.32-2.71l-.52-.85-7.6 2.37.59 1.31a13.47 13.47 0 0 0 3.61 4.91 17 17 0 0 0 4.89 2.87 22.64 22.64 0 0 0 5.65 1.32 55.2 55.2 0 0 0 5.88.31 63 63 0 0 0 6.36-.34 25.14 25.14 0 0 0 6.33-1.45 12.92 12.92 0 0 0 5-3.28 8.45 8.45 0 0 0 2.12-6A8 8 0 0 0 188 66.6a11.1 11.1 0 0 0-3.87-3.07zm16.26-28.77a4.79 4.79 0 0 0-3.4 1.32 4.53 4.53 0 0 0 0 6.61 5 5 0 0 0 6.79 0 4.53 4.53 0 0 0 0-6.61 4.79 4.79 0 0 0-3.39-1.32zm-3.99 12.07h8.04V81.8h-8.04zm49.49 3.11a18.6 18.6 0 0 0-5.2-2.48 28.83 28.83 0 0 0-16.4-.09 20.37 20.37 0 0 0-6.79 3.45 16.77 16.77 0 0 0-4.65 5.74 17.54 17.54 0 0 0-1.71 7.88 18 18 0 0 0 1.71 8.07 15.87 15.87 0 0 0 4.67 5.66 19.55 19.55 0 0 0 6.87 3.23 32.65 32.65 0 0 0 8.3 1 38.07 38.07 0 0 0 4-.22 23.48 23.48 0 0 0 4.06-.81 21.55 21.55 0 0 0 3.81-1.52c.44-.22.86-.47 1.27-.74v2.69h8v-47h-8zM232.45 53a22.71 22.71 0 0 1 4.12.46 20.46 20.46 0 0 1 4.56 1.43 12.18 12.18 0 0 1 3.54 2.37 3.92 3.92 0 0 1 1.24 2.93v8.41a3.89 3.89 0 0 1-1.21 2.88 11 11 0 0 1-3.44 2.29 21 21 0 0 1-4.47 1.35 23.25 23.25 0 0 1-4.06.43 21.08 21.08 0 0 1-5.48-.69 12.32 12.32 0 0 1-4.27-2 9.28 9.28 0 0 1-2.76-3.41 11.38 11.38 0 0 1-1-5 11.74 11.74 0 0 1 1-4.95 10.08 10.08 0 0 1 2.65-3.5 11.93 11.93 0 0 1 4.13-2.2 18.34 18.34 0 0 1 5.45-.8zM296 68.62l-.49 1a9.64 9.64 0 0 1-2.36 3 11.12 11.12 0 0 1-3.15 1.83 15.72 15.72 0 0 1-3.79.9 27 27 0 0 1-9.33-.37 13.49 13.49 0 0 1-4.22-1.81 9.85 9.85 0 0 1-3-3 8.42 8.42 0 0 1-1.12-2.94h34.31v-3.49a16.33 16.33 0 0 0-1.85-7.63 17 17 0 0 0-4.78-5.5 21.09 21.09 0 0 0-6.77-3.31 29.42 29.42 0 0 0-16 .06 20.69 20.69 0 0 0-6.81 3.44 16.85 16.85 0 0 0-4.72 5.73 17.24 17.24 0 0 0-1.76 7.89 17.44 17.44 0 0 0 1.76 8 16 16 0 0 0 4.77 5.62 20.71 20.71 0 0 0 6.91 3.25 31.6 31.6 0 0 0 8.25 1.05 50.35 50.35 0 0 0 6.29-.38 21.4 21.4 0 0 0 5.73-1.52 17.74 17.74 0 0 0 4.87-3.12 17.41 17.41 0 0 0 3.8-5.12l.68-1.34zm-27-8.2a8.79 8.79 0 0 1 1.19-2.32 11.1 11.1 0 0 1 3-2.79 13.44 13.44 0 0 1 3.92-1.69 18.61 18.61 0 0 1 9.11 0 13.36 13.36 0 0 1 3.92 1.69 11 11 0 0 1 3 2.79 8.57 8.57 0 0 1 1.19 2.32z"/></svg>